<?xml version="1.0" standalone="no"?>
<!DOCTYPE svg PUBLIC "-//W3C//DTD SVG 20010904//EN"
 "http://www.w3.org/TR/2001/REC-SVG-20010904/DTD/svg10.dtd">
<svg version="1.0" xmlns="http://www.w3.org/2000/svg"
 width="320.000000pt" height="320.000000pt" viewBox="0 0 320.000000 320.000000"
 preserveAspectRatio="xMidYMid meet">
<metadata>
Created by potrace 1.14, written by Peter Selinger 2001-2017
</metadata>
<g transform="translate(0.000000,320.000000) scale(0.100000,-0.100000)"
fill="#000000" stroke="none">
<path d="M0 2921 l0 -278 143 29 c163 33 226 45 317 59 36 5 76 12 90 14 126
24 491 23 735 -1 22 -2 72 -6 110 -10 39 -3 79 -8 89 -10 120 -22 418 -22 574
0 24 4 39 0 55 -14 19 -18 21 -31 21 -167 1 -132 -6 -238 -19 -298 -3 -11 -7
-31 -9 -45 -29 -181 -196 -576 -305 -723 -22 -30 -77 -88 -123 -128 -229 -203
-290 -278 -494 -599 -158 -249 -203 -331 -310 -564 l-83 -181 301 -3 c166 -1
305 1 308 5 5 6 60 247 74 328 1 6 13 53 26 105 19 76 54 155 176 395 83 165
188 368 234 450 135 245 198 402 225 565 3 19 8 42 10 50 11 38 42 250 52 350
16 166 10 238 -26 345 -18 55 -40 108 -49 118 -8 9 -11 17 -6 17 5 0 36 -32
69 -71 33 -39 65 -76 70 -83 6 -6 47 -60 91 -121 256 -348 333 -542 389 -985
6 -47 6 -223 1 -275 -12 -113 -18 -162 -21 -175 -3 -8 -7 -33 -9 -55 -3 -22
-12 -87 -21 -145 -9 -58 -18 -121 -20 -140 -3 -32 -12 -103 -20 -158 -2 -12
-7 -62 -10 -110 -4 -48 -8 -97 -10 -110 -2 -13 -7 -80 -11 -150 -3 -70 -7
-131 -8 -137 -1 -6 105 -11 297 -13 l297 -2 0 551 c0 473 -2 560 -16 613 -9
33 -17 68 -19 77 -23 115 -107 334 -184 479 -174 329 -314 544 -430 660 -90
90 -272 256 -331 302 -19 15 -30 28 -24 28 20 0 167 -52 214 -75 43 -22 183
-118 232 -160 13 -11 62 -52 108 -92 47 -39 92 -80 100 -90 124 -150 206 -262
299 -405 24 -38 45 -68 47 -68 2 0 4 70 4 155 l0 156 -28 27 c-50 47 -112 96
-347 273 -166 124 -256 184 -323 216 -111 52 -226 81 -336 82 -42 1 -29 8 29
15 28 4 73 11 100 16 28 5 64 12 80 15 17 3 40 7 51 9 12 2 37 7 55 10 90 14
446 96 612 140 53 14 99 26 102 26 3 0 5 54 5 120 l0 120 -1600 0 -1600 0 0
-279z"/>
<path d="M2020 2693 c-143 -54 -291 -105 -400 -138 -92 -27 -933 -256 -990
-270 -59 -13 -192 -52 -283 -81 -128 -42 -201 -74 -285 -129 l-62 -40 0 -164
c0 -160 0 -163 20 -150 10 8 54 40 97 71 161 117 519 333 633 382 36 15 74 31
85 36 64 28 286 101 530 176 298 91 413 139 603 254 55 33 103 60 108 60 14 0
-118 -118 -216 -193 -188 -144 -419 -276 -910 -523 -129 -65 -246 -125 -260
-134 -14 -9 -65 -43 -115 -75 -127 -83 -379 -281 -537 -422 l-38 -33 0 -288 0
-288 413 411 c512 509 492 491 737 655 522 351 683 496 898 808 29 42 52 67
55 60 4 -9 6 -8 6 3 2 35 -22 38 -89 12z"/>
<path d="M1845 2680 c-54 -11 -184 -27 -285 -35 -30 -2 -73 -6 -95 -9 -22 -3
-76 -8 -120 -11 -44 -3 -98 -8 -120 -10 -22 -2 -69 -7 -105 -10 -156 -13 -187
-16 -220 -20 -19 -3 -62 -7 -95 -10 -118 -10 -229 -23 -269 -31 -12 -2 -37 -7
-56 -10 -35 -7 -52 -10 -91 -19 -46 -10 -140 -37 -261 -77 l-128 -42 0 -69 0
-68 83 44 c45 24 98 49 117 56 28 10 244 64 345 86 116 25 227 46 265 50 25 3
61 8 80 10 19 3 51 8 70 10 19 2 51 6 70 9 19 3 55 8 80 11 25 4 56 8 70 10
14 2 43 6 65 9 189 27 266 40 439 76 194 41 265 59 221 58 -11 0 -38 -4 -60
-8z"/>
<path d="M2038 2548 c-106 -212 -247 -416 -380 -546 -40 -40 -154 -131 -253
-203 -348 -254 -525 -420 -885 -830 -136 -154 -332 -369 -442 -484 l-77 -80
-1 -202 0 -203 79 0 c93 0 74 -19 231 230 252 401 504 758 661 935 14 17 50
57 79 90 84 96 250 256 317 306 33 25 100 68 149 95 49 28 112 74 145 107 124
123 322 466 378 657 17 58 36 119 41 135 12 40 23 105 18 105 -2 0 -30 -51
-60 -112z"/>
</g>
</svg>
